<?xml version="1.0" encoding="UTF-8" standalone="no"?>
<svg width="218px" height="66px" viewBox="0 0 218 66" version="1.1" xmlns="http://www.w3.org/2000/svg" xmlns:xlink="http://www.w3.org/1999/xlink">
    <!-- Generator: Sketch 50 (54983) - http://www.bohemiancoding.com/sketch -->
    <title>Logo</title>
    <desc>Created with Sketch.</desc>
    <defs></defs>
    <g id="Symbols" stroke="none" stroke-width="1" fill="none" fill-rule="evenodd">
        <g id="Header-with-colors" transform="translate(-150.000000, -13.000000)" fill-rule="nonzero">
            <g id="Logo" transform="translate(150.000000, 13.000000)">
                <polygon id="Fill-1" fill="#00703C" points="58.7601078 44.8502124 65.4669865 44.8502124 65.4669865 18.1061947 58.7601078 18.1061947"></polygon>
                <path d="M96.7473423,37.0464425 L96.7473423,42.8894867 C93.3803881,44.6673982 89.8565445,45.556354 86.1740485,45.556354 C81.3939137,45.556354 77.59331,44.2427788 74.75931,41.621469 C71.92531,38.9943186 70.5121294,35.7591504 70.5121294,31.9159646 C70.5121294,28.0733628 72.0046361,24.8119115 74.9896496,22.1257699 C77.9746631,19.4460531 81.8739838,18.1061947 86.6870243,18.1061947 C90.5269973,18.1061947 93.7752561,18.8906018 96.4312129,20.4588319 L96.4312129,26.4198584 C93.170027,24.5899646 90.0798329,23.6747257 87.1670943,23.6747257 C84.3001887,23.6747257 81.959186,24.4392743 80.1446739,25.9619469 C78.3231105,27.4846195 77.4158544,29.4324956 77.4158544,31.7921416 C77.4158544,34.1646372 78.3101833,36.1253628 80.1053046,37.6743186 C81.8939623,39.2162655 84.1950081,39.987823 86.9961024,39.987823 C88.3834286,39.987823 89.7184582,39.8050088 91.0000162,39.4452212 C92.2892129,39.0795929 94.202442,38.2817522 96.7473423,37.0464425" id="Fill-2" fill="#00703C"></path>
                <path d="M117.92566,18.1061947 L129.83986,44.8507965 L122.63352,44.8507965 L120.417677,39.5567788 L108.411224,39.5567788 L106.405741,44.8507965 L99.3045822,44.8507965 L110.114679,18.1061947 L117.92566,18.1061947 Z M118.465078,34.8900531 L114.118593,24.4982655 L110.179903,34.8900531 L118.465078,34.8900531 Z" id="Fill-3" fill="#00703C"></path>
                <path d="M132.797844,18.1061947 L144.797833,18.1061947 C147.401493,18.1061947 149.51862,18.8578938 151.149213,20.3548673 C152.773342,21.8576814 153.588933,23.6747257 153.588933,25.8054159 C153.588933,28.759646 152.043542,30.9423186 148.959811,32.3610265 C150.320695,32.9556106 151.609892,34.5962655 152.826226,37.2689735 C154.042561,39.9486903 155.219526,42.4783009 156.350658,44.8507965 L149.012695,44.8507965 C148.571995,43.9682655 147.802825,42.2884779 146.704598,39.8178584 C145.613423,37.3408142 144.672674,35.7463009 143.903504,35.0471681 C143.127871,34.3410265 142.305817,33.9882478 141.417951,33.9882478 L139.504722,33.9882478 L139.504722,44.8507965 L132.797844,44.8507965 L132.797844,18.1061947 Z M139.504722,23.0083009 L139.504722,29.0867257 L143.029154,29.0867257 C144.153235,29.0867257 145.0411,28.8250619 145.698625,28.2953097 C146.356151,27.7661416 146.68462,27.0080177 146.68462,26.0273628 C146.68462,24.0146549 145.415989,23.0083009 142.877553,23.0083009 L139.504722,23.0083009 Z" id="Fill-4" fill="#00703C"></path>
                <path d="M159.827493,18.1061947 L171.69586,18.1061947 C176.285612,18.1061947 179.90876,19.354354 182.578232,21.8512566 C185.24124,24.3411504 186.575682,27.5698938 186.575682,31.5240531 C186.575682,35.6744602 185.221261,38.9289027 182.518884,41.3019823 C179.816507,43.667469 175.956555,44.8507965 170.946668,44.8507965 L159.827493,44.8507965 L159.827493,18.1061947 Z M166.534372,23.0083009 L166.534372,39.9486903 L170.907299,39.9486903 C173.747763,39.9486903 175.917186,39.171292 177.416156,37.6223363 C178.922178,36.0727965 179.671957,34.0273805 179.671957,31.4849204 C179.671957,28.8577699 178.909251,26.7854867 177.390302,25.2762478 C175.864889,23.7664248 173.681951,23.0083009 170.827973,23.0083009 L166.534372,23.0083009 Z" id="Fill-5" fill="#00703C"></path>
                <path d="M204.890032,18.1061947 L216.804819,44.8507965 L209.597892,44.8507965 L207.382049,39.5567788 L195.375596,39.5567788 L193.370113,44.8507965 L186.269542,44.8507965 L197.079051,18.1061947 L204.890032,18.1061947 Z M205.42945,34.8900531 L201.082965,24.4982655 L197.144863,34.8900531 L205.42945,34.8900531 Z" id="Fill-6" fill="#00703C"></path>
                <path d="M5.08039892,57.0789027 C5.03456604,57.1583363 4.98638275,57.2155752 4.93467385,57.2517876 C4.88355256,57.288 4.81832884,57.3066903 4.7419407,57.3066903 C4.66143935,57.3066903 4.57506199,57.2763186 4.48163342,57.2173274 C4.38761725,57.1583363 4.27479784,57.0940885 4.1443504,57.0216637 C4.01449057,56.9492389 3.86347709,56.8826549 3.68895957,56.8236637 C3.51502965,56.7646726 3.30819407,56.7360531 3.07139084,56.7360531 C2.85691644,56.7360531 2.6694717,56.7611681 2.508469,56.8125664 C2.34805391,56.8639646 2.21408086,56.9358053 2.10478706,57.0275044 C1.99549326,57.1186195 1.91322911,57.2272566 1.85975741,57.3545841 C1.80628571,57.4819115 1.77984367,57.6226726 1.77984367,57.775115 C1.77984367,57.9684425 1.83507817,58.1302301 1.94437197,58.2598938 C2.05307817,58.3889735 2.19704043,58.4993628 2.37625876,58.5904779 C2.55665229,58.682177 2.76113747,58.7639469 2.99088949,58.8363717 C3.22064151,58.9082124 3.45568194,58.9847257 3.69659838,59.0664956 C3.93810243,59.1482655 4.17314286,59.242885 4.40289488,59.3515221 C4.6326469,59.4601593 4.83713208,59.5968319 5.01752561,59.7621239 C5.19733154,59.928 5.342469,60.1312566 5.4517628,60.3713097 C5.560469,60.6107788 5.6139407,60.901646 5.6139407,61.2439115 C5.6139407,61.6165487 5.55106739,61.9646549 5.42297035,62.2899823 C5.29487332,62.6153097 5.10742857,62.8985841 4.86004852,63.1403894 C4.61325606,63.3816106 4.31122911,63.5720177 3.95514286,63.7110265 C3.5990566,63.8494513 3.19184906,63.9201239 2.73234501,63.9201239 C2.46851213,63.9201239 2.20820485,63.8932566 1.95201078,63.8418584 C1.69522911,63.7904602 1.45019946,63.7186195 1.21515903,63.6234159 C0.979530997,63.5282124 0.758005391,63.4143186 0.551169811,63.2811504 C0.344334232,63.1479823 0.161002695,62.9996283 0,62.8360885 L0.453628032,62.0995752 C0.491822102,62.0464248 0.541768194,62.0008673 0.602878706,61.9646549 C0.663989218,61.9284425 0.729212938,61.9115044 0.797962264,61.9115044 C0.89374124,61.9115044 0.99715903,61.949469 1.10821563,62.0277345 C1.21868464,62.1054159 1.35089488,62.1930265 1.50425876,62.2882301 C1.65703504,62.3834336 1.83684097,62.468708 2.04191375,62.5469735 C2.24639892,62.6246549 2.49142857,62.6649558 2.7781779,62.6649558 C3.21829111,62.6649558 3.55909973,62.5604071 3.80060377,62.3530619 C4.04152022,62.1457168 4.16197844,61.8490088 4.16197844,61.4606018 C4.16197844,61.2439115 4.10850674,61.0669381 3.99921294,60.9302655 C3.88991914,60.7930088 3.74478167,60.6773628 3.56497574,60.5839115 C3.38516981,60.4910442 3.18009704,60.4127788 2.95093261,60.3479469 C2.72118059,60.2836991 2.48790296,60.2130265 2.25051213,60.1370973 C2.01312129,60.0611681 1.77984367,59.969469 1.55009164,59.8631681 C1.32033962,59.7568673 1.11585445,59.6178584 0.935460916,59.4467257 C0.755654987,59.2755929 0.612280323,59.0606549 0.503574124,58.8036637 C0.394280323,58.5472566 0.339045822,58.2312743 0.339045822,57.8545487 C0.339045822,57.5543363 0.400156334,57.2611327 0.520614555,56.9761062 C0.641072776,56.6904956 0.815002695,56.4375929 1.04475472,56.2168142 C1.27450674,55.9966195 1.55773046,55.819646 1.89442588,55.6864779 C2.23112129,55.5533097 2.6177628,55.4867257 3.0537628,55.4867257 C3.5438221,55.4867257 3.99509973,55.5626549 4.40877089,55.7150973 C4.82185445,55.8669558 5.17441509,56.0801416 5.46469003,56.3540708 L5.08039892,57.0789027" id="Fill-7" fill="#00703C"></path>
                <path d="M10.4111159,59.152354 C10.3688086,59.2055044 10.3288518,59.2475575 10.2883073,59.2779292 C10.2483504,59.3083009 10.1890027,59.3234867 10.1126146,59.3234867 C10.039752,59.3234867 9.96923989,59.300708 9.89990296,59.2569027 C9.83115364,59.2130973 9.74888949,59.1640354 9.65311051,59.1085487 C9.55791914,59.053646 9.44451213,59.004 9.31288949,58.9601947 C9.18067925,58.9163894 9.01615094,58.8959469 8.82106739,58.8959469 C8.57251213,58.8959469 8.35392453,58.9397522 8.16647978,59.029115 C7.97903504,59.1184779 7.82390836,59.2475575 7.69992453,59.4151858 C7.5753531,59.5822301 7.48133693,59.7843186 7.42022642,60.0220354 C7.3591159,60.2597522 7.32856065,60.5295929 7.32856065,60.8298053 C7.32856065,61.1416991 7.36264151,61.4197168 7.42962803,61.6632743 C7.49661456,61.9068319 7.59239353,62.1100885 7.71872776,62.2753805 C7.84506199,62.4412566 7.99842588,62.5668319 8.17823181,62.6521062 C8.35803774,62.7379646 8.56076011,62.7817699 8.78639892,62.7817699 C9.01262534,62.7817699 9.19595687,62.7531504 9.33580593,62.6976637 C9.47565499,62.6427611 9.592,62.5820177 9.68777898,62.5154336 C9.78355795,62.4488496 9.86758491,62.3881062 9.93868464,62.3326195 C10.0091968,62.2777168 10.0879353,62.2508496 10.1760755,62.2508496 C10.2906577,62.2508496 10.3764474,62.2946549 10.4340323,62.3822655 L10.8418275,62.8956637 C10.684938,63.0784779 10.5145337,63.2303363 10.3306146,63.3541593 C10.1466954,63.4773982 9.95748787,63.5766903 9.76064151,63.6508673 C9.56320755,63.7250442 9.36048518,63.7781947 9.15188679,63.8085664 C8.94328841,63.8389381 8.73469003,63.8541239 8.52844205,63.8541239 C8.16471698,63.8541239 7.82214555,63.7857876 7.50072776,63.6508673 C7.17930997,63.5159469 6.89784906,63.3196991 6.65693261,63.0609558 C6.41601617,62.8022124 6.22622102,62.4850619 6.08637197,62.1100885 C5.94711051,61.735115 5.87601078,61.3093274 5.87601078,60.8298053 C5.87601078,60.4005133 5.9394717,60.0010088 6.06345553,59.6336283 C6.18802695,59.2668319 6.36959569,58.9490973 6.61109973,58.6810088 C6.85201617,58.4129204 7.15051752,58.2032389 7.50660377,58.0513805 C7.86210243,57.8989381 8.27166038,57.8230088 8.73469003,57.8230088 C9.17480323,57.8230088 9.56144474,57.8936814 9.89226415,58.0344425 C10.2236712,58.1752035 10.5198221,58.376708 10.7842426,58.6389558 L10.4111159,59.152354" id="Fill-8" fill="#00703C"></path>
                <path d="M11.9471051,63.9481593 L13.3708625,63.9481593 L13.3708625,58.0940177 L11.9471051,58.0940177 L11.9471051,63.9481593 Z M13.5659461,56.3879469 C13.5659461,56.5100177 13.5412668,56.6239115 13.4913208,56.7302124 C13.4413747,56.8370973 13.3767385,56.9299646 13.2944744,57.0099823 C13.2122102,57.09 13.1146685,57.1524956 13.0036119,57.2003894 C12.8925553,57.2476991 12.7738598,57.2728142 12.6475256,57.2728142 C12.5253046,57.2728142 12.4101348,57.2476991 12.3014286,57.2003894 C12.1921348,57.1524956 12.0963558,57.09 12.0158544,57.0099823 C11.9359407,56.9299646 11.8724798,56.8370973 11.8248841,56.7302124 C11.7767008,56.6239115 11.7520216,56.5100177 11.7520216,56.3879469 C11.7520216,56.2623717 11.7767008,56.1449735 11.8248841,56.034 C11.8724798,55.9241947 11.9359407,55.8289912 12.0158544,55.7489735 C12.0963558,55.6689558 12.1921348,55.604708 12.3014286,55.5568142 C12.4101348,55.5095044 12.5253046,55.4867257 12.6475256,55.4867257 C12.7738598,55.4867257 12.8925553,55.5095044 13.0036119,55.5568142 C13.1146685,55.604708 13.2122102,55.6689558 13.2944744,55.7489735 C13.3767385,55.8289912 13.4413747,55.9241947 13.4913208,56.034 C13.5412668,56.1449735 13.5659461,56.2623717 13.5659461,56.3879469 Z" id="Fill-9" fill="#00703C"></path>
                <path d="M17.5199137,57.8230088 C17.8912776,57.8230088 18.2338491,57.882 18.547628,57.9999823 C18.861407,58.1179646 19.1311159,58.2890973 19.3567547,58.5151327 C19.5823935,58.7417522 19.7604367,59.0191858 19.8891213,59.3486018 C20.0172183,59.6774336 20.0800916,60.0541593 20.0800916,60.4764425 C20.0800916,60.6896283 20.0571752,60.8321416 20.0113423,60.9063186 C19.9655094,60.9804956 19.8773693,61.0184602 19.7475094,61.0184602 L16.1020323,61.0184602 C16.1249488,61.3186726 16.1784205,61.5774159 16.263035,61.7964425 C16.347062,62.014885 16.4581186,62.1953628 16.5956173,62.3384602 C16.7337035,62.4809735 16.8982318,62.5872743 17.0874394,62.6579469 C17.2766469,62.7280354 17.4858329,62.7642478 17.7149973,62.7642478 C17.9447493,62.7642478 18.1439461,62.7379646 18.3102372,62.6848142 C18.4765283,62.6310796 18.6222534,62.5720885 18.7462372,62.5078407 C18.8708086,62.4430088 18.9801024,62.3840177 19.073531,62.3308673 C19.1675472,62.2777168 19.2574501,62.2508496 19.3455903,62.2508496 C19.4642857,62.2508496 19.5524259,62.2946549 19.6094232,62.3822655 L20.0172183,62.8956637 C19.8603288,63.0784779 19.6840485,63.2303363 19.488965,63.3541593 C19.2938814,63.4773982 19.091159,63.5766903 18.8784474,63.6508673 C18.6663235,63.7250442 18.4500863,63.7781947 18.2297358,63.8085664 C18.009973,63.8389381 17.7954987,63.8541239 17.5886631,63.8541239 C17.1796927,63.8541239 16.7983396,63.7857876 16.4463666,63.6508673 C16.0943935,63.5159469 15.7882534,63.3161947 15.5279461,63.0516106 C15.2676388,62.7870265 15.0631536,62.4599469 14.913903,62.0703717 C14.7646523,61.6802124 14.690027,61.2293097 14.690027,60.7159115 C14.690027,60.3164071 14.7552507,59.9402655 14.8851105,59.5880708 C15.015558,59.2364602 15.2024151,58.929823 15.4456819,58.6693274 C15.6889488,58.4088319 15.9850997,58.2032389 16.33531,58.0513805 C16.6855202,57.8989381 17.0798005,57.8230088 17.5199137,57.8230088 Z M17.5487062,58.8328673 C17.1356226,58.8328673 16.8118544,58.9490973 16.5785768,59.1809735 C16.3452992,59.4128496 16.1960485,59.7422655 16.1308248,60.1680531 L18.8055849,60.1680531 C18.8055849,59.985823 18.7809057,59.812354 18.7291968,59.6505664 C18.6774879,59.4893628 18.5993369,59.3486018 18.4959191,59.226531 C18.3925013,59.1050442 18.2626415,59.0080885 18.1034016,58.9374159 C17.9447493,58.8673274 17.7590674,58.8328673 17.5487062,58.8328673 Z" id="Fill-10" fill="#00703C"></path>
                <path d="M21.1536388,63.7688496 L21.1536388,57.9141239 L22.0203504,57.9141239 C22.2042695,57.9141239 22.3247278,57.9999823 22.3817251,58.171115 L22.4792668,58.633115 C22.5979623,58.5116283 22.7242965,58.4012389 22.8565067,58.302531 C22.988717,58.2032389 23.1279784,58.1179646 23.2754663,58.0455398 C23.4229542,57.973115 23.5798437,57.9182124 23.7478976,57.8802478 C23.9165391,57.8416991 24.1004582,57.8230088 24.2990674,57.8230088 C24.6204852,57.8230088 24.9060593,57.8761593 25.1546146,57.9847965 C25.4031698,58.0928496 25.6117682,58.245292 25.7780593,58.4409558 C25.944938,58.6372035 26.0712722,58.8708319 26.157062,59.1430088 C26.2434394,59.4151858 26.285159,59.7153982 26.285159,60.0424779 L26.285159,63.7688496 L24.8678652,63.7688496 L24.8678652,60.0424779 C24.8678652,59.6850265 24.7850135,59.4075929 24.6204852,59.2113451 C24.4559569,59.0156814 24.2056388,58.9187257 23.8689434,58.9187257 C23.6239137,58.9187257 23.3941617,58.9736283 23.1796873,59.0840177 C22.9658005,59.1944071 22.7624906,59.3445133 22.5715202,59.5349204 L22.5715202,63.7688496 L21.1536388,63.7688496" id="Fill-11" fill="#00703C"></path>
                <path d="M31.5647547,59.152354 C31.5224474,59.2055044 31.4824906,59.2475575 31.4419461,59.2779292 C31.4019892,59.3083009 31.3426415,59.3234867 31.2662534,59.3234867 C31.1933908,59.3234867 31.1228787,59.300708 31.0535418,59.2569027 C30.9847925,59.2130973 30.9025283,59.1640354 30.8067493,59.1085487 C30.7109704,59.053646 30.5981509,59.004 30.4665283,58.9601947 C30.3343181,58.9163894 30.1697898,58.8959469 29.9747062,58.8959469 C29.7261509,58.8959469 29.5075633,58.9397522 29.3201186,59.029115 C29.1326739,59.1184779 28.9775472,59.2475575 28.8529757,59.4151858 C28.7289919,59.5822301 28.6349757,59.7843186 28.5738652,60.0220354 C28.5127547,60.2597522 28.4821995,60.5295929 28.4821995,60.8298053 C28.4821995,61.1416991 28.5162803,61.4197168 28.5832668,61.6632743 C28.6502534,61.9068319 28.7460323,62.1100885 28.8723666,62.2753805 C28.9987008,62.4412566 29.1514771,62.5668319 29.3318706,62.6521062 C29.5116765,62.7379646 29.7143989,62.7817699 29.9400377,62.7817699 C30.1656765,62.7817699 30.3495957,62.7531504 30.4894447,62.6976637 C30.6287062,62.6427611 30.7456388,62.5820177 30.8414178,62.5154336 C30.9371968,62.4488496 31.0212237,62.3881062 31.0917358,62.3326195 C31.1628356,62.2777168 31.2409865,62.2508496 31.3291267,62.2508496 C31.4442965,62.2508496 31.5300863,62.2946549 31.5876712,62.3822655 L31.9948787,62.8956637 C31.8379892,63.0784779 31.6681725,63.2303363 31.4842534,63.3541593 C31.3003342,63.4773982 31.1111267,63.5766903 30.9142803,63.6508673 C30.7168464,63.7250442 30.514124,63.7781947 30.3055256,63.8085664 C30.0969272,63.8389381 29.8883288,63.8541239 29.6814933,63.8541239 C29.3183558,63.8541239 28.9757844,63.7857876 28.6543666,63.6508673 C28.3329488,63.5159469 28.0514879,63.3196991 27.8105714,63.0609558 C27.5690674,62.8022124 27.3798598,62.4850619 27.2400108,62.1100885 C27.1007493,61.735115 27.0296496,61.3093274 27.0296496,60.8298053 C27.0296496,60.4005133 27.0931105,60.0010088 27.2170943,59.6336283 C27.3416658,59.2668319 27.5232345,58.9490973 27.7641509,58.6810088 C28.005655,58.4129204 28.3041563,58.2032389 28.6602426,58.0513805 C29.0157412,57.8989381 29.4252992,57.8230088 29.8883288,57.8230088 C30.328442,57.8230088 30.7150836,57.8936814 31.045903,58.0344425 C31.37731,58.1752035 31.6734609,58.376708 31.9378814,58.6389558 L31.5647547,59.152354" id="Fill-12" fill="#00703C"></path>
                <path d="M35.7355472,57.8230088 C36.1069111,57.8230088 36.4494825,57.882 36.7632615,57.9999823 C37.0770404,58.1179646 37.3467493,58.2890973 37.5729757,58.5151327 C37.7986146,58.7417522 37.9766577,59.0191858 38.1047547,59.3486018 C38.2328518,59.6774336 38.2957251,60.0541593 38.2957251,60.4764425 C38.2957251,60.6896283 38.2728086,60.8321416 38.2269757,60.9063186 C38.1811429,60.9804956 38.0930027,61.0184602 37.9631429,61.0184602 L34.3176658,61.0184602 C34.3411698,61.3186726 34.3946415,61.5774159 34.4786685,61.7964425 C34.5626954,62.014885 34.673752,62.1953628 34.8118383,62.3384602 C34.9493369,62.4809735 35.1138652,62.5872743 35.3030728,62.6579469 C35.4928679,62.7280354 35.7014663,62.7642478 35.9306307,62.7642478 C36.1603827,62.7642478 36.3595795,62.7379646 36.5258706,62.6848142 C36.6921617,62.6310796 36.8378868,62.5720885 36.9624582,62.5078407 C37.086442,62.4430088 37.1957358,62.3840177 37.289752,62.3308673 C37.3831806,62.2777168 37.4730836,62.2508496 37.5612237,62.2508496 C37.6799191,62.2508496 37.7680593,62.2946549 37.8250566,62.3822655 L38.2328518,62.8956637 C38.0759623,63.0784779 37.8996819,63.2303363 37.7045984,63.3541593 C37.5095148,63.4773982 37.3067925,63.5766903 37.0940809,63.6508673 C36.8819569,63.7250442 36.6657197,63.7781947 36.4453693,63.8085664 C36.2256065,63.8389381 36.0111321,63.8541239 35.8048841,63.8541239 C35.3953261,63.8541239 35.0145606,63.7857876 34.6625876,63.6508673 C34.310027,63.5159469 34.0038868,63.3161947 33.7435795,63.0516106 C33.4838598,62.7870265 33.2787871,62.4599469 33.1295364,62.0703717 C32.9802857,61.6802124 32.9056604,61.2293097 32.9056604,60.7159115 C32.9056604,60.3164071 32.9708841,59.9402655 33.1007439,59.5880708 C33.2311914,59.2364602 33.4186361,58.929823 33.6613154,58.6693274 C33.9045822,58.4088319 34.2013208,58.2032389 34.551531,58.0513805 C34.9017412,57.8989381 35.295434,57.8230088 35.7355472,57.8230088 Z M35.7643396,58.8328673 C35.3512561,58.8328673 35.0280755,58.9490973 34.7942102,59.1809735 C34.5609326,59.4128496 34.4116819,59.7422655 34.3464582,60.1680531 L37.0218059,60.1680531 C37.0218059,59.985823 36.9965391,59.812354 36.9454178,59.6505664 C36.8937089,59.4893628 36.8149704,59.3486018 36.7115526,59.226531 C36.6081348,59.1050442 36.4782749,59.0080885 36.3196226,58.9374159 C36.1603827,58.8673274 35.9747008,58.8328673 35.7643396,58.8328673 Z" id="Fill-13" fill="#00703C"></path>
                <path d="M42.0099515,63.8804071 L42.0099515,59.0869381 L41.4993261,59.0075044 C41.3882695,58.9847257 41.3001294,58.9444248 41.2331429,58.8895221 C41.1661563,58.8340354 41.1320755,58.756354 41.1320755,58.6535575 L41.1320755,58.0770796 L42.0099515,58.0770796 L42.0099515,57.6436991 C42.0099515,57.3090265 42.0616604,57.0082301 42.1633154,56.7418938 C42.2649704,56.4755575 42.4101078,56.2495221 42.5993154,56.0632035 C42.7891105,55.8763009 43.0182749,55.7337876 43.2903342,55.6350796 C43.5618059,55.5363717 43.8679461,55.4867257 44.2087547,55.4867257 C44.4802264,55.4867257 44.7328949,55.5229381 44.9667601,55.5953628 L44.9379677,56.3026726 C44.9338544,56.355823 44.9185768,56.3978761 44.8921348,56.43 C44.8651051,56.462708 44.8304367,56.4872389 44.7863666,56.504177 C44.7428841,56.5216991 44.6911752,56.5327965 44.6335903,56.5386372 C44.5760054,56.5444779 44.5148949,56.5479823 44.4496712,56.5479823 C44.2816173,56.5479823 44.1323666,56.5649204 44.0001563,56.6011327 C43.8679461,56.6373451 43.7551267,56.7004248 43.6634609,56.7897876 C43.5717951,56.8791504 43.5030458,56.9971327 43.4548625,57.1437345 C43.4072668,57.2897522 43.382,57.4725664 43.382,57.6892566 L43.382,58.0770796 L44.9150512,58.0770796 L44.9150512,59.0816814 L43.4278329,59.0816814 L43.4278329,63.8804071 L42.0099515,63.8804071" id="Fill-14" fill="#00703C"></path>
                <path d="M48.1674232,57.8230088 C48.6040108,57.8230088 49.0018167,57.8936814 49.3596658,58.0344425 C49.7175148,58.1752035 50.023655,58.3743717 50.2780863,58.633115 C50.5325175,58.8918584 50.7276011,59.2078407 50.8650997,59.5804779 C51.003186,59.953115 51.0719353,60.3695575 51.0719353,60.8298053 C51.0719353,61.2941416 51.003186,61.7123363 50.8650997,62.0855575 C50.7276011,62.4581947 50.5325175,62.7759292 50.2780863,63.038177 C50.023655,63.3010088 49.7175148,63.5025133 49.3596658,63.6432743 C49.0018167,63.7840354 48.6040108,63.8541239 48.1674232,63.8541239 C47.72731,63.8541239 47.3271536,63.7840354 46.9675418,63.6432743 C46.6079299,63.5025133 46.3017898,63.3010088 46.0473585,63.038177 C45.7929272,62.7759292 45.5954933,62.4581947 45.4562318,62.0855575 C45.3163827,61.7123363 45.245283,61.2941416 45.245283,60.8298053 C45.245283,60.3695575 45.3163827,59.953115 45.4562318,59.5804779 C45.5954933,59.2078407 45.7929272,58.8918584 46.0473585,58.633115 C46.3017898,58.3743717 46.6079299,58.1752035 46.9675418,58.0344425 C47.3271536,57.8936814 47.72731,57.8230088 48.1674232,57.8230088 Z M48.1674232,62.7700885 C48.6574825,62.7700885 49.0206199,62.6065487 49.256248,62.279469 C49.4912884,61.9523894 49.608221,61.4728673 49.608221,60.8414867 C49.608221,60.2101062 49.4912884,59.7288319 49.256248,59.3976637 C49.0206199,59.0670796 48.6574825,58.9012035 48.1674232,58.9012035 C47.6697251,58.9012035 47.3024744,59.0670796 47.0633208,59.4 C46.8241671,59.7323363 46.7037089,60.2136106 46.7037089,60.8414867 C46.7037089,61.4693628 46.8241671,61.9465487 47.0633208,62.2753805 C47.3024744,62.6047965 47.6697251,62.7700885 48.1674232,62.7700885 Z" id="Fill-15" fill="#00703C"></path>
                <path d="M52.296496,63.7857876 L52.296496,57.9310619 L53.1285391,57.9310619 C53.2742642,57.9310619 53.3753315,57.956177 53.4329164,58.0069912 C53.4905013,58.0589735 53.5286954,58.1518407 53.5474987,58.2850088 L53.628,58.9467611 C53.8154447,58.5969027 54.0357951,58.3212212 54.2884636,58.121469 C54.5405445,57.9217168 54.8390458,57.8230088 55.1839677,57.8230088 C55.4554394,57.8230088 55.6734394,57.882 55.8379677,57.9999823 L55.7463019,59.0553982 C55.7274987,59.1237345 55.700469,59.1716283 55.6640377,59.1996637 C55.6276065,59.2282832 55.578248,59.243469 55.5165499,59.243469 C55.458965,59.243469 55.374938,59.2341239 55.2621186,59.2148496 C55.1492992,59.1961593 55.0382426,59.1868142 54.9312992,59.1868142 C54.7744097,59.1868142 54.6345606,59.2095929 54.5123396,59.2551504 C54.389531,59.300708 54.2808248,59.3655398 54.183283,59.4508142 C54.0851536,59.5366726 53.9993639,59.6412212 53.9247385,59.762708 C53.8501132,59.8847788 53.7790135,60.0237876 53.7143774,60.1797345 L53.7143774,63.7857876 L52.296496,63.7857876" id="Fill-16" fill="#00703C"></path>
                <path d="M59.3477089,63.7857876 L59.3477089,57.9310619 L60.1803396,57.9310619 C60.3254771,57.9310619 60.4271321,57.956177 60.484717,58.0069912 C60.5417143,58.0589735 60.580496,58.1518407 60.5992992,58.2850088 L60.6798005,58.9467611 C60.8672453,58.5969027 61.0870081,58.3212212 61.3396765,58.121469 C61.592345,57.9217168 61.8908464,57.8230088 62.2351806,57.8230088 C62.5072399,57.8230088 62.7252399,57.882 62.8897682,57.9999823 L62.7981024,59.0553982 C62.7787116,59.1237345 62.7522695,59.1716283 62.7158383,59.1996637 C62.679407,59.2282832 62.6294609,59.243469 62.5683504,59.243469 C62.5107655,59.243469 62.4267385,59.2341239 62.3139191,59.2148496 C62.2010997,59.1961593 62.0900431,59.1868142 61.9830997,59.1868142 C61.8262102,59.1868142 61.6863612,59.2095929 61.5635526,59.2551504 C61.4413315,59.300708 61.3320377,59.3655398 61.234496,59.4508142 C61.1369542,59.5366726 61.0511644,59.6412212 60.9765391,59.762708 C60.9019137,59.8847788 60.830814,60.0237876 60.7655903,60.1797345 L60.7655903,63.7857876 L59.3477089,63.7857876" id="Fill-17" fill="#00703C"></path>
                <path d="M65.7032022,57.8230088 C66.074566,57.8230088 66.4171375,57.882 66.7309164,57.9999823 C67.0446954,58.1179646 67.3144043,58.2890973 67.5400431,58.5151327 C67.7662695,58.7417522 67.9443127,59.0191858 68.0724097,59.3486018 C68.2005067,59.6774336 68.2633801,60.0541593 68.2633801,60.4764425 C68.2633801,60.6896283 68.2404636,60.8321416 68.1946307,60.9063186 C68.1487978,60.9804956 68.0606577,61.0184602 67.9307978,61.0184602 L64.2853208,61.0184602 C64.3082372,61.3186726 64.3617089,61.5774159 64.4463235,61.7964425 C64.5303504,62.014885 64.641407,62.1953628 64.7789057,62.3384602 C64.9169919,62.4809735 65.0815202,62.5872743 65.2707278,62.6579469 C65.4605229,62.7280354 65.6691213,62.7642478 65.8982857,62.7642478 C66.1280377,62.7642478 66.3272345,62.7379646 66.4935256,62.6848142 C66.6598167,62.6310796 66.8055418,62.5720885 66.9301132,62.5078407 C67.054097,62.4430088 67.1633908,62.3840177 67.257407,62.3308673 C67.3508356,62.2777168 67.4407385,62.2508496 67.5288787,62.2508496 C67.6475741,62.2508496 67.7357143,62.2946549 67.7927116,62.3822655 L68.2005067,62.8956637 C68.0436173,63.0784779 67.8673369,63.2303363 67.6722534,63.3541593 C67.4771698,63.4773982 67.2744474,63.5766903 67.0617358,63.6508673 C66.8496119,63.7250442 66.6333747,63.7781947 66.4130243,63.8085664 C66.1932615,63.8389381 65.9787871,63.8541239 65.7719515,63.8541239 C65.3629811,63.8541239 64.981628,63.7857876 64.629655,63.6508673 C64.2776819,63.5159469 63.9715418,63.3161947 63.7112345,63.0516106 C63.4509272,62.7870265 63.246442,62.4599469 63.0971914,62.0703717 C62.9479407,61.6802124 62.8733154,61.2293097 62.8733154,60.7159115 C62.8733154,60.3164071 62.9385391,59.9402655 63.0683989,59.5880708 C63.1988464,59.2364602 63.3862911,58.929823 63.6289704,58.6693274 C63.8722372,58.4088319 64.1689757,58.2032389 64.5185984,58.0513805 C64.8693962,57.8989381 65.2630889,57.8230088 65.7032022,57.8230088 Z M65.7319946,58.8328673 C65.3189111,58.8328673 64.9951429,58.9490973 64.7618652,59.1809735 C64.5285876,59.4128496 64.3793369,59.7422655 64.3141132,60.1680531 L66.9888733,60.1680531 C66.9888733,59.985823 66.9641941,59.812354 66.9124852,59.6505664 C66.8607763,59.4893628 66.7826253,59.3486018 66.6792075,59.226531 C66.5757898,59.1050442 66.4459299,59.0080885 66.28669,58.9374159 C66.1280377,58.8673274 65.9423558,58.8328673 65.7319946,58.8328673 Z" id="Fill-18" fill="#00703C"></path>
                <path d="M73.3490674,59.0553982 C73.3108733,59.1161416 73.2709164,59.1581947 73.2286092,59.1827257 C73.1868895,59.2078407 73.1328302,59.2206903 73.0681941,59.2206903 C72.9994447,59.2206903 72.9265822,59.202 72.8478437,59.1640354 C72.7696927,59.1260708 72.6774394,59.0822655 72.5740216,59.0343717 C72.4711914,58.9870619 72.3542588,58.9450088 72.2220485,58.9070442 C72.0904259,58.8690796 71.9335364,58.8498053 71.7531429,58.8498053 C71.4740323,58.8498053 71.2560323,58.9087965 71.0973801,59.0267788 C70.9381402,59.1447611 70.8582264,59.2989558 70.8582264,59.4893628 C70.8582264,59.6149381 70.8999461,59.7194867 70.9822102,59.8047611 C71.0644744,59.8906195 71.1737682,59.9665487 71.309504,60.0313805 C71.4452399,60.0962124 71.5986038,60.1528673 71.7707709,60.2042655 C71.942938,60.2556637 72.1186307,60.3129027 72.2966739,60.373646 C72.474717,60.4343894 72.6486469,60.5027257 72.8214016,60.5809912 C72.9935687,60.6586726 73.1486954,60.7579646 73.2844313,60.8776991 C73.4201671,60.9974336 73.5294609,61.1416991 73.6117251,61.3093274 C73.6939892,61.4769558 73.7339461,61.6784602 73.7339461,61.9144248 C73.7339461,62.1953628 73.684,62.4546903 73.5829326,62.6924071 C73.4812776,62.9301239 73.3302642,63.1351327 73.1310674,63.3086018 C72.9324582,63.4814867 72.6874286,63.6164071 72.3948032,63.7133628 C72.1015903,63.8103186 71.7631321,63.8599646 71.3806038,63.8599646 C71.1772938,63.8599646 70.9804474,63.8412743 70.7871267,63.8044779 C70.5938059,63.7688496 70.408124,63.7192035 70.2306685,63.6543717 C70.0520377,63.5901239 69.8875094,63.5136106 69.736496,63.426 C69.5854825,63.3389735 69.4515094,63.2437699 69.3369272,63.1409735 L69.6636334,62.6047965 C69.7059407,62.5399646 69.7558868,62.4903186 69.8128841,62.4564425 C69.870469,62.4219823 69.9433315,62.4050442 70.0314717,62.4050442 C70.1190243,62.4050442 70.2036388,62.4295752 70.2817898,62.4792212 C70.3605283,62.5288673 70.4504313,62.5820177 70.5538491,62.6386726 C70.6566792,62.6959115 70.7794879,62.7490619 70.9193369,62.798708 C71.0585984,62.848354 71.2348787,62.872885 71.4493531,62.872885 C71.617407,62.872885 71.7631321,62.8518584 71.8835903,62.8121416 C72.0040485,62.7718407 72.1033531,62.7204425 72.1820916,62.6561947 C72.2602426,62.5913628 72.3178275,62.5154336 72.3542588,62.4295752 C72.39069,62.3437168 72.4077305,62.2566903 72.4077305,62.1655752 C72.4077305,62.0283186 72.3677736,61.916177 72.2855094,61.8285664 C72.2032453,61.7409558 72.0939515,61.6650265 71.9582156,61.6001947 C71.8224798,61.5359469 71.6673531,61.4769558 71.4934232,61.4255575 C71.3189057,61.3741593 71.1408625,61.3186726 70.9592938,61.2579292 C70.7777251,61.1971858 70.5996819,61.1247611 70.4251644,61.0429912 C70.2512345,60.9612212 70.0961078,60.8584248 69.960372,60.7328496 C69.8246361,60.6072743 69.7153423,60.4536637 69.6330782,60.2708496 C69.550814,60.0886195 69.5090943,59.8678407 69.5090943,59.6090973 C69.5090943,59.3690442 69.55669,59.1412566 69.652469,58.9245664 C69.748248,58.707292 69.8898598,58.517469 70.0755418,58.3556814 C70.2606361,58.1938938 70.4921509,58.0642301 70.7700863,57.9678584 C71.047434,57.8709027 71.3670889,57.8230088 71.7302264,57.8230088 C72.1362588,57.8230088 72.5052722,57.8895929 72.838442,58.0227611 C73.1716119,58.1559292 73.4489596,58.3311504 73.6704852,58.5478407 L73.3490674,59.0553982" id="Fill-19" fill="#00703C"></path>
                <path d="M74.8204205,63.9481593 L76.2441779,63.9481593 L76.2441779,58.0940177 L74.8204205,58.0940177 L74.8204205,63.9481593 Z M76.4392615,56.3879469 C76.4392615,56.5100177 76.4145822,56.6239115 76.3646361,56.7302124 C76.31469,56.8370973 76.2500539,56.9299646 76.1677898,57.0099823 C76.0855256,57.09 75.9879838,57.1524956 75.8769272,57.2003894 C75.7658706,57.2476991 75.6471752,57.2728142 75.520841,57.2728142 C75.3986199,57.2728142 75.2834501,57.2476991 75.1747439,57.2003894 C75.0654501,57.1524956 74.9696712,57.09 74.8891698,57.0099823 C74.8092561,56.9299646 74.7457951,56.8370973 74.6981995,56.7302124 C74.6500162,56.6239115 74.6253369,56.5100177 74.6253369,56.3879469 C74.6253369,56.2623717 74.6500162,56.1449735 74.6981995,56.034 C74.7457951,55.9241947 74.8092561,55.8289912 74.8891698,55.7489735 C74.9696712,55.6689558 75.0654501,55.604708 75.1747439,55.5568142 C75.2834501,55.5095044 75.3986199,55.4867257 75.520841,55.4867257 C75.6471752,55.4867257 75.7658706,55.5095044 75.8769272,55.5568142 C75.9879838,55.604708 76.0855256,55.6689558 76.1677898,55.7489735 C76.2500539,55.8289912 76.31469,55.9241947 76.3646361,56.034 C76.4145822,56.1449735 76.4392615,56.2623717 76.4392615,56.3879469 Z" id="Fill-20" fill="#00703C"></path>
                <polygon id="Fill-21" fill="#00703C" points="77.5633423 63.9656814 78.9812237 63.9656814 78.9812237 55.4867257 77.5633423 55.4867257"></polygon>
                <path d="M80.1088302,63.9481593 L81.5325876,63.9481593 L81.5325876,58.0940177 L80.1088302,58.0940177 L80.1088302,63.9481593 Z M81.7270836,56.3879469 C81.7270836,56.5100177 81.7024043,56.6239115 81.6524582,56.7302124 C81.6030997,56.8370973 81.537876,56.9299646 81.4556119,57.0099823 C81.3733477,57.09 81.2758059,57.1524956 81.1647493,57.2003894 C81.0536927,57.2476991 80.9349973,57.2728142 80.8086631,57.2728142 C80.686442,57.2728142 80.5718598,57.2476991 80.462566,57.2003894 C80.3532722,57.1524956 80.2574933,57.09 80.1775795,57.0099823 C80.0970782,56.9299646 80.0342049,56.8370973 79.9860216,56.7302124 C79.9384259,56.6239115 79.9137466,56.5100177 79.9137466,56.3879469 C79.9137466,56.2623717 79.9384259,56.1449735 79.9860216,56.034 C80.0342049,55.9241947 80.0970782,55.8289912 80.1775795,55.7489735 C80.2574933,55.6689558 80.3532722,55.604708 80.462566,55.5568142 C80.5718598,55.5095044 80.686442,55.4867257 80.8086631,55.4867257 C80.9349973,55.4867257 81.0536927,55.5095044 81.1647493,55.5568142 C81.2758059,55.604708 81.3733477,55.6689558 81.4556119,55.7489735 C81.537876,55.8289912 81.6030997,55.9241947 81.6524582,56.034 C81.7024043,56.1449735 81.7270836,56.2623717 81.7270836,56.3879469 Z" id="Fill-22" fill="#00703C"></path>
                <path d="M85.6816388,57.8230088 C86.0530027,57.8230088 86.3955741,57.882 86.7093531,57.9999823 C87.0231321,58.1179646 87.292841,58.2890973 87.5190674,58.5151327 C87.7447062,58.7417522 87.9227493,59.0191858 88.0508464,59.3486018 C88.1789434,59.6774336 88.2424043,60.0541593 88.2424043,60.4764425 C88.2424043,60.6896283 88.2189003,60.8321416 88.1730674,60.9063186 C88.1272345,60.9804956 88.0396819,61.0184602 87.9092345,61.0184602 L84.264345,61.0184602 C84.2872615,61.3186726 84.3407332,61.5774159 84.4247601,61.7964425 C84.5087871,62.014885 84.6198437,62.1953628 84.7579299,62.3384602 C84.8954286,62.4809735 85.0599569,62.5872743 85.249752,62.6579469 C85.4389596,62.7280354 85.647558,62.7642478 85.87731,62.7642478 C86.107062,62.7642478 86.3056712,62.7379646 86.4719623,62.6848142 C86.638841,62.6310796 86.7839784,62.5720885 86.9085499,62.5078407 C87.0331213,62.4430088 87.1418275,62.3840177 87.2358437,62.3308673 C87.3292722,62.2777168 87.4191752,62.2508496 87.5073154,62.2508496 C87.6260108,62.2508496 87.7141509,62.2946549 87.7711482,62.3822655 L88.1789434,62.8956637 C88.0220539,63.0784779 87.8457736,63.2303363 87.6512776,63.3541593 C87.4556065,63.4773982 87.2528841,63.5766903 87.0407601,63.6508673 C86.8280485,63.7250442 86.6118113,63.7781947 86.3920485,63.8085664 C86.1716981,63.8389381 85.9578113,63.8541239 85.7509757,63.8541239 C85.3414178,63.8541239 84.9606523,63.7857876 84.6086792,63.6508673 C84.2567062,63.5159469 83.950566,63.3161947 83.6896712,63.0516106 C83.4299515,62.7870265 83.2248787,62.4599469 83.075628,62.0703717 C82.9263774,61.6802124 82.851752,61.2293097 82.851752,60.7159115 C82.851752,60.3164071 82.9169757,59.9402655 83.0468356,59.5880708 C83.177283,59.2364602 83.3647278,58.929823 83.607407,58.6693274 C83.8506739,58.4088319 84.1474124,58.2032389 84.4976226,58.0513805 C84.8478329,57.8989381 85.2415256,57.8230088 85.6816388,57.8230088 Z M85.7104313,58.8328673 C85.2973477,58.8328673 84.9741671,58.9490973 84.7403019,59.1809735 C84.5070243,59.4128496 84.3577736,59.7422655 84.2925499,60.1680531 L86.9678976,60.1680531 C86.9678976,59.985823 86.9432183,59.812354 86.8915094,59.6505664 C86.8398005,59.4893628 86.761062,59.3486018 86.6576442,59.226531 C86.554814,59.1050442 86.4243666,59.0080885 86.2657143,58.9374159 C86.107062,58.8673274 85.9207925,58.8328673 85.7104313,58.8328673 Z" id="Fill-23" fill="#00703C"></path>
                <path d="M89.3153639,63.7688496 L89.3153639,57.9141239 L90.1820755,57.9141239 C90.3659946,57.9141239 90.4864528,57.9999823 90.5440377,58.171115 L90.6415795,58.633115 C90.7602749,58.5116283 90.8866092,58.4012389 91.0182318,58.302531 C91.150442,58.2032389 91.2902911,58.1179646 91.437779,58.0455398 C91.5846792,57.973115 91.7415687,57.9182124 91.9102102,57.8802478 C92.0782642,57.8416991 92.2621833,57.8230088 92.4613801,57.8230088 C92.7827978,57.8230088 93.0677844,57.8761593 93.3163396,57.9847965 C93.5654825,58.0928496 93.7740809,58.245292 93.940372,58.4409558 C94.1066631,58.6372035 94.2329973,58.8708319 94.3193747,59.1430088 C94.4051644,59.4151858 94.4474717,59.7153982 94.4474717,60.0424779 L94.4474717,63.7688496 L93.0295903,63.7688496 L93.0295903,60.0424779 C93.0295903,59.6850265 92.9473261,59.4075929 92.7827978,59.2113451 C92.6182695,59.0156814 92.3673639,58.9187257 92.0306685,58.9187257 C91.7856388,58.9187257 91.5558868,58.9736283 91.342,59.0840177 C91.1275256,59.1944071 90.9248032,59.3445133 90.7332453,59.5349204 L90.7332453,63.7688496 L89.3153639,63.7688496" id="Fill-24" fill="#00703C"></path>
                <path d="M97.6592992,63.8079823 C97.1469111,63.8079823 96.7543935,63.6631327 96.4805714,63.376354 C96.2073369,63.0889912 96.0692507,62.6935752 96.0692507,62.1877699 L96.0692507,58.9181416 L95.466372,58.9181416 C95.3899838,58.9181416 95.3247601,58.8930265 95.2712884,58.8439646 C95.2178167,58.7943186 95.1913747,58.7201416 95.1913747,58.6214336 L95.1913747,58.0618938 L96.138,57.9082832 L96.4365013,56.3102655 C96.4558922,56.2343363 96.4923235,56.1753451 96.5457951,56.133292 C96.5992668,56.091823 96.6686038,56.0707965 96.7526307,56.0707965 L97.4871321,56.0707965 L97.4871321,57.9135398 L99.0601402,57.9135398 L99.0601402,58.9181416 L97.4871321,58.9181416 L97.4871321,62.0902301 C97.4871321,62.2730442 97.532965,62.4155575 97.6228679,62.518354 C97.7127709,62.6211504 97.8355795,62.6725487 97.992469,62.6725487 C98.0806092,62.6725487 98.1552345,62.6608673 98.2145822,62.6404248 C98.2739299,62.6193982 98.3250512,62.5983717 98.3691213,62.5755929 C98.4131914,62.5528142 98.4513854,62.5300354 98.4860539,62.5090088 C98.5207224,62.4879823 98.5548032,62.4786372 98.5894717,62.4786372 C98.6311914,62.4786372 98.6658598,62.4879823 98.6928895,62.5090088 C98.7193315,62.5300354 98.748124,62.5621593 98.7786792,62.6042124 L99.2035148,63.2887434 C98.9966792,63.4598761 98.759876,63.5889558 98.4919299,63.6765664 C98.2239838,63.764177 97.9466361,63.8079823 97.6592992,63.8079823" id="Fill-25" fill="#00703C"></path>
                <polygon id="Fill-26" fill="#00703C" points="102.830189 63.9656814 104.24807 63.9656814 104.24807 55.4867257 102.830189 55.4867257"></polygon>
                <path d="M105.963278,63.9481593 L107.387035,63.9481593 L107.387035,58.0940177 L105.963278,58.0940177 L105.963278,63.9481593 Z M107.582119,56.3879469 C107.582119,56.5100177 107.557439,56.6239115 107.507493,56.7302124 C107.457547,56.8370973 107.392911,56.9299646 107.310647,57.0099823 C107.228383,57.09 107.130841,57.1524956 107.019784,57.2003894 C106.908728,57.2476991 106.790032,57.2728142 106.663698,57.2728142 C106.541477,57.2728142 106.426307,57.2476991 106.317601,57.2003894 C106.208307,57.1524956 106.112528,57.09 106.032027,57.0099823 C105.951526,56.9299646 105.888652,56.8370973 105.841057,56.7302124 C105.792873,56.6239115 105.768194,56.5100177 105.768194,56.3879469 C105.768194,56.2623717 105.792873,56.1449735 105.841057,56.034 C105.888652,55.9241947 105.951526,55.8289912 106.032027,55.7489735 C106.112528,55.6689558 106.208307,55.604708 106.317601,55.5568142 C106.426307,55.5095044 106.541477,55.4867257 106.663698,55.4867257 C106.790032,55.4867257 106.908728,55.5095044 107.019784,55.5568142 C107.130841,55.604708 107.228383,55.6689558 107.310647,55.7489735 C107.392911,55.8289912 107.457547,55.9241947 107.507493,56.034 C107.557439,56.1449735 107.582119,56.2623717 107.582119,56.3879469 Z" id="Fill-27" fill="#00703C"></path>
                <path d="M108.118598,57.8230088 L109.289687,57.8230088 C109.396631,57.8230088 109.486534,57.8481239 109.557633,57.8971858 C109.628146,57.9468319 109.673978,58.0099115 109.697482,58.0858407 L110.833903,61.2123717 C110.895013,61.3951858 110.948485,61.5739115 110.992555,61.7491327 C111.036625,61.9237699 111.07717,62.0989912 111.114776,62.2736283 C111.153558,62.0989912 111.195278,61.9237699 111.241698,61.7491327 C111.287531,61.5739115 111.342765,61.3951858 111.407989,61.2123717 L112.567326,58.0858407 C112.594356,58.0099115 112.641951,57.9468319 112.710701,57.8971858 C112.780038,57.8481239 112.862302,57.8230088 112.957493,57.8230088 L114.077461,57.8230088 L111.740571,63.6777345 L110.4549,63.6777345 L108.118598,57.8230088" id="Fill-28" fill="#00703C"></path>
                <path d="M116.824496,57.8230088 C117.19586,57.8230088 117.537844,57.882 117.851623,57.9999823 C118.165402,58.1179646 118.435698,58.2890973 118.661337,58.5151327 C118.886976,58.7417522 119.065019,59.0191858 119.193116,59.3486018 C119.321213,59.6774336 119.384674,60.0541593 119.384674,60.4764425 C119.384674,60.6896283 119.361757,60.8321416 119.315925,60.9063186 C119.270092,60.9804956 119.181951,61.0184602 119.051504,61.0184602 L115.406615,61.0184602 C115.429531,61.3186726 115.483003,61.5774159 115.56703,61.7964425 C115.651644,62.014885 115.762701,62.1953628 115.900199,62.3384602 C116.037698,62.4809735 116.202814,62.5872743 116.392022,62.6579469 C116.581229,62.7280354 116.789827,62.7642478 117.01958,62.7642478 C117.249332,62.7642478 117.447941,62.7379646 117.614819,62.6848142 C117.781111,62.6310796 117.926248,62.5720885 118.050819,62.5078407 C118.175391,62.4430088 118.284685,62.3840177 118.378113,62.3308673 C118.472129,62.2777168 118.562032,62.2508496 118.649585,62.2508496 C118.76828,62.2508496 118.85642,62.2946549 118.914005,62.3822655 L119.321213,62.8956637 C119.164323,63.0784779 118.988631,63.2303363 118.793547,63.3541593 C118.598464,63.4773982 118.395154,63.5766903 118.18303,63.6508673 C117.970906,63.7250442 117.754668,63.7781947 117.534318,63.8085664 C117.313968,63.8389381 117.100081,63.8541239 116.893245,63.8541239 C116.483687,63.8541239 116.102922,63.7857876 115.750949,63.6508673 C115.398976,63.5159469 115.092836,63.3161947 114.832528,63.0516106 C114.572221,62.7870265 114.367736,62.4599469 114.218485,62.0703717 C114.069235,61.6802124 113.994609,61.2293097 113.994609,60.7159115 C113.994609,60.3164071 114.059245,59.9402655 114.189693,59.5880708 C114.319553,59.2364602 114.506997,58.929823 114.750264,58.6693274 C114.992943,58.4088319 115.289682,58.2032389 115.639892,58.0513805 C115.990102,57.8989381 116.384383,57.8230088 116.824496,57.8230088 Z M116.853288,58.8328673 C116.439617,58.8328673 116.116437,58.9490973 115.883159,59.1809735 C115.649294,59.4128496 115.500043,59.7422655 115.435407,60.1680531 L118.110167,60.1680531 C118.110167,59.985823 118.085488,59.812354 118.033779,59.6505664 C117.98207,59.4893628 117.903919,59.3486018 117.800501,59.226531 C117.697084,59.1050442 117.566636,59.0080885 117.407984,58.9374159 C117.249332,58.8673274 117.06365,58.8328673 116.853288,58.8328673 Z" id="Fill-29" fill="#00703C"></path>
                <polygon id="Fill-30" fill="#00703C" points="120.458221 63.9656814 121.876102 63.9656814 121.876102 55.4867257 120.458221 55.4867257"></polygon>
                <path d="M123.59131,63.9481593 L125.015067,63.9481593 L125.015067,58.0940177 L123.59131,58.0940177 L123.59131,63.9481593 Z M125.210151,56.3879469 C125.210151,56.5100177 125.185472,56.6239115 125.135526,56.7302124 C125.08558,56.8370973 125.020943,56.9299646 124.938679,57.0099823 C124.856415,57.09 124.758286,57.1524956 124.647817,57.2003894 C124.53676,57.2476991 124.418065,57.2728142 124.29173,57.2728142 C124.169509,57.2728142 124.05434,57.2476991 123.945633,57.2003894 C123.83634,57.1524956 123.740561,57.09 123.660059,57.0099823 C123.579558,56.9299646 123.516685,56.8370973 123.469089,56.7302124 C123.420906,56.6239115 123.396226,56.5100177 123.396226,56.3879469 C123.396226,56.2623717 123.420906,56.1449735 123.469089,56.034 C123.516685,55.9241947 123.579558,55.8289912 123.660059,55.7489735 C123.740561,55.6689558 123.83634,55.604708 123.945633,55.5568142 C124.05434,55.5095044 124.169509,55.4867257 124.29173,55.4867257 C124.418065,55.4867257 124.53676,55.5095044 124.647817,55.5568142 C124.758286,55.604708 124.856415,55.6689558 124.938679,55.7489735 C125.020943,55.8289912 125.08558,55.9241947 125.135526,56.034 C125.185472,56.1449735 125.210151,56.2623717 125.210151,56.3879469 Z" id="Fill-31" fill="#00703C"></path>
                <path d="M126.334232,63.9662655 L126.334232,55.4867257 L127.752113,55.4867257 L127.752113,58.7452566 C127.981865,58.5285664 128.233946,58.3533451 128.509531,58.220177 C128.785116,58.0870088 129.108884,58.0204248 129.47966,58.0204248 C129.801078,58.0204248 130.086652,58.0735752 130.335208,58.1822124 C130.583763,58.2902655 130.792361,58.442708 130.95924,58.6383717 C131.125531,58.8346195 131.251865,59.0682478 131.337655,59.3404248 C131.424032,59.6126018 131.465752,59.9128142 131.465752,60.2398938 L131.465752,63.9662655 L130.048458,63.9662655 L130.048458,60.2398938 C130.048458,59.8824425 129.966194,59.6050088 129.801078,59.4087611 C129.63655,59.2130973 129.386232,59.1161416 129.049536,59.1161416 C128.804507,59.1161416 128.574755,59.1710442 128.36028,59.2814336 C128.146394,59.391823 127.943084,59.5419292 127.752113,59.7323363 L127.752113,63.9662655 L126.334232,63.9662655" id="Fill-32" fill="#00703C"></path>
                <path d="M135.719984,57.8230088 C136.155984,57.8230088 136.55379,57.8936814 136.911639,58.0344425 C137.270075,58.1752035 137.576216,58.3743717 137.830647,58.633115 C138.085078,58.8918584 138.280162,59.2078407 138.41766,59.5804779 C138.555747,59.953115 138.624496,60.3695575 138.624496,60.8298053 C138.624496,61.2941416 138.555747,61.7123363 138.41766,62.0855575 C138.280162,62.4581947 138.085078,62.7759292 137.830647,63.038177 C137.576216,63.3010088 137.270075,63.5025133 136.911639,63.6432743 C136.55379,63.7840354 136.155984,63.8541239 135.719984,63.8541239 C135.279871,63.8541239 134.879714,63.7840354 134.520102,63.6432743 C134.160491,63.5025133 133.85435,63.3010088 133.599919,63.038177 C133.345488,62.7759292 133.148054,62.4581947 133.008205,62.0855575 C132.868943,61.7123363 132.797844,61.2941416 132.797844,60.8298053 C132.797844,60.3695575 132.868943,59.953115 133.008205,59.5804779 C133.148054,59.2078407 133.345488,58.8918584 133.599919,58.633115 C133.85435,58.3743717 134.160491,58.1752035 134.520102,58.0344425 C134.879714,57.8936814 135.279871,57.8230088 135.719984,57.8230088 Z M135.719984,62.7700885 C136.209456,62.7700885 136.573181,62.6065487 136.808809,62.279469 C137.043849,61.9523894 137.160782,61.4728673 137.160782,60.8414867 C137.160782,60.2101062 137.043849,59.7288319 136.808809,59.3976637 C136.573181,59.0670796 136.209456,58.9012035 135.719984,58.9012035 C135.222286,58.9012035 134.855035,59.0670796 134.615881,59.4 C134.376728,59.7323363 134.25627,60.2136106 134.25627,60.8414867 C134.25627,61.4693628 134.376728,61.9465487 134.615881,62.2753805 C134.855035,62.6047965 135.222286,62.7700885 135.719984,62.7700885 Z" id="Fill-33" fill="#00703C"></path>
                <path d="M142.183596,57.8230088 C142.619596,57.8230088 143.017402,57.8936814 143.375251,58.0344425 C143.7331,58.1752035 144.03924,58.3743717 144.294259,58.633115 C144.548102,58.8918584 144.743774,59.2078407 144.881272,59.5804779 C145.019358,59.953115 145.088108,60.3695575 145.088108,60.8298053 C145.088108,61.2941416 145.019358,61.7123363 144.881272,62.0855575 C144.743774,62.4581947 144.548102,62.7759292 144.294259,63.038177 C144.03924,63.3010088 143.7331,63.5025133 143.375251,63.6432743 C143.017402,63.7840354 142.619596,63.8541239 142.183596,63.8541239 C141.743482,63.8541239 141.343326,63.7840354 140.983714,63.6432743 C140.624102,63.5025133 140.317375,63.3010088 140.063531,63.038177 C139.808512,62.7759292 139.611666,62.4581947 139.471817,62.0855575 C139.331968,61.7123363 139.261456,61.2941416 139.261456,60.8298053 C139.261456,60.3695575 139.331968,59.953115 139.471817,59.5804779 C139.611666,59.2078407 139.808512,58.8918584 140.063531,58.633115 C140.317375,58.3743717 140.624102,58.1752035 140.983714,58.0344425 C141.343326,57.8936814 141.743482,57.8230088 142.183596,57.8230088 Z M142.183596,62.7700885 C142.673067,62.7700885 143.036792,62.6065487 143.27242,62.279469 C143.507461,61.9523894 143.624394,61.4728673 143.624394,60.8414867 C143.624394,60.2101062 143.507461,59.7288319 143.27242,59.3976637 C143.036792,59.0670796 142.673067,58.9012035 142.183596,58.9012035 C141.685898,58.9012035 141.318647,59.0670796 141.079493,59.4 C140.84034,59.7323363 140.719294,60.2136106 140.719294,60.8414867 C140.719294,61.4693628 140.84034,61.9465487 141.079493,62.2753805 C141.318647,62.6047965 141.685898,62.7700885 142.183596,62.7700885 Z" id="Fill-34" fill="#00703C"></path>
                <path d="M150.277801,63.9662655 C150.089768,63.9662655 149.97166,63.8804071 149.921714,63.7092743 L149.801256,63.1444779 C149.678447,63.2811504 149.55035,63.4049735 149.416377,63.5153628 C149.282404,63.6257522 149.13903,63.7209558 148.983903,63.8003894 C148.829364,63.8804071 148.662485,63.9411504 148.484442,63.9849558 C148.306399,64.0287611 148.113078,64.0515398 147.90683,64.0515398 C147.585412,64.0515398 147.290437,63.9849558 147.022491,63.8517876 C146.755132,63.7186195 146.52538,63.524708 146.332059,63.2718053 C146.138739,63.0189027 145.989488,62.7070088 145.884307,62.3343717 C145.779127,61.9611504 145.725067,61.5353628 145.725067,61.0558407 C145.725067,60.6224602 145.784415,60.2194513 145.903111,59.8462301 C146.021806,59.4735929 146.19221,59.1500177 146.414323,58.8760885 C146.635849,58.6027434 146.902032,58.3878053 147.212286,58.2336106 C147.521951,58.0794159 147.870399,58.0034867 148.25704,58.0034867 C148.586097,58.0034867 148.86697,58.054885 149.100836,58.1594336 C149.334113,58.2639823 149.542712,58.4047434 149.726631,58.5793805 L149.726631,55.4867257 L151.144512,55.4867257 L151.144512,63.9662655 L150.277801,63.9662655 Z M148.388663,62.9330442 C148.683639,62.9330442 148.933957,62.8723009 149.140792,62.7508142 C149.347628,62.6287434 149.542712,62.4558584 149.726631,62.2315752 L149.726631,59.6067611 C149.565628,59.4128496 149.391698,59.2755929 149.202491,59.1955752 C149.012695,59.1161416 148.80821,59.0758407 148.589623,59.0758407 C148.375736,59.0758407 148.182415,59.1161416 148.010248,59.1955752 C147.838081,59.2755929 147.690593,59.3953274 147.567784,59.557115 C147.445563,59.7189027 147.351547,59.9244956 147.286911,60.1733097 C147.221687,60.422708 147.189369,60.7176637 147.189369,61.0558407 C147.189369,61.3981062 147.218162,61.6872212 147.273396,61.9249381 C147.328631,62.1626549 147.407369,62.3571504 147.510787,62.5072566 C147.614205,62.6573628 147.740539,62.766 147.88979,62.8325841 C148.03904,62.8991681 148.205332,62.9330442 148.388663,62.9330442 Z" id="Fill-35" fill="#00703C"></path>
                <path d="M156.201407,59.0553982 C156.163213,59.1161416 156.123256,59.1581947 156.080949,59.1827257 C156.038642,59.2078407 155.98517,59.2206903 155.919946,59.2206903 C155.851197,59.2206903 155.778334,59.202 155.700183,59.1640354 C155.621445,59.1260708 155.529779,59.0822655 155.426361,59.0343717 C155.322943,58.9870619 155.206598,58.9450088 155.074388,58.9070442 C154.942178,58.8690796 154.785288,58.8498053 154.605482,58.8498053 C154.326372,58.8498053 154.108372,58.9087965 153.949132,59.0267788 C153.79048,59.1447611 153.709978,59.2989558 153.709978,59.4893628 C153.709978,59.6149381 153.752286,59.7194867 153.83455,59.8047611 C153.916814,59.8906195 154.02552,59.9665487 154.161844,60.0313805 C154.29758,60.0962124 154.450943,60.1528673 154.622523,60.2042655 C154.795278,60.2556637 154.97097,60.3129027 155.149013,60.373646 C155.327057,60.4343894 155.500987,60.5027257 155.673154,60.5809912 C155.845321,60.6586726 156.000447,60.7579646 156.136183,60.8776991 C156.272507,60.9974336 156.381213,61.1416991 156.463477,61.3093274 C156.545741,61.4769558 156.586286,61.6784602 156.586286,61.9144248 C156.586286,62.1953628 156.53634,62.4546903 156.435272,62.6924071 C156.333617,62.9301239 156.182604,63.1351327 155.983407,63.3086018 C155.78421,63.4814867 155.539181,63.6164071 155.246555,63.7133628 C154.95393,63.8103186 154.615472,63.8599646 154.232356,63.8599646 C154.029633,63.8599646 153.832787,63.8412743 153.639466,63.8044779 C153.446146,63.7688496 153.260464,63.7192035 153.08242,63.6543717 C152.904377,63.5901239 152.739849,63.5136106 152.588836,63.426 C152.437822,63.3389735 152.303849,63.2437699 152.188679,63.1409735 L152.515973,62.6047965 C152.55828,62.5399646 152.608226,62.4903186 152.665224,62.4564425 C152.722809,62.4219823 152.795671,62.4050442 152.883811,62.4050442 C152.971364,62.4050442 153.055978,62.4295752 153.134129,62.4792212 C153.212868,62.5288673 153.302771,62.5820177 153.405601,62.6386726 C153.509019,62.6959115 153.631827,62.7490619 153.771089,62.798708 C153.910938,62.848354 154.087218,62.872885 154.301105,62.872885 C154.469747,62.872885 154.615472,62.8518584 154.73593,62.8121416 C154.856388,62.7718407 154.955693,62.7204425 155.034431,62.6561947 C155.112582,62.5913628 155.170167,62.5154336 155.206598,62.4295752 C155.24303,62.3437168 155.26007,62.2566903 155.26007,62.1655752 C155.26007,62.0283186 155.220113,61.916177 155.137849,61.8285664 C155.055585,61.7409558 154.946291,61.6650265 154.810555,61.6001947 C154.674819,61.5359469 154.519693,61.4769558 154.345175,61.4255575 C154.171245,61.3741593 153.993202,61.3186726 153.811633,61.2579292 C153.629477,61.1971858 153.452022,61.1247611 153.277504,61.0429912 C153.103574,60.9612212 152.948447,60.8584248 152.812712,60.7328496 C152.676976,60.6072743 152.567682,60.4536637 152.485418,60.2708496 C152.403154,60.0886195 152.361434,59.8678407 152.361434,59.6090973 C152.361434,59.3690442 152.40903,59.1412566 152.504809,58.9245664 C152.600588,58.707292 152.742199,58.517469 152.927294,58.3556814 C153.112976,58.1938938 153.344491,58.0642301 153.621838,57.9678584 C153.899774,57.8709027 154.219429,57.8230088 154.582566,57.8230088 C154.988598,57.8230088 155.357612,57.8895929 155.690782,58.0227611 C156.023364,58.1559292 156.300712,58.3311504 156.522825,58.5478407 L156.201407,59.0553982" id="Fill-36" fill="#00703C"></path>
                <path d="M160.610178,63.9481593 L162.033935,63.9481593 L162.033935,58.0940177 L160.610178,58.0940177 L160.610178,63.9481593 Z M162.229019,56.3879469 C162.229019,56.5100177 162.20434,56.6239115 162.154394,56.7302124 C162.104447,56.8370973 162.039811,56.9299646 161.957547,57.0099823 C161.875283,57.09 161.777154,57.1524956 161.666685,57.2003894 C161.555628,57.2476991 161.436933,57.2728142 161.310598,57.2728142 C161.188377,57.2728142 161.073208,57.2476991 160.964501,57.2003894 C160.855208,57.1524956 160.759429,57.09 160.678927,57.0099823 C160.598426,56.9299646 160.535553,56.8370973 160.487957,56.7302124 C160.439774,56.6239115 160.415094,56.5100177 160.415094,56.3879469 C160.415094,56.2623717 160.439774,56.1449735 160.487957,56.034 C160.535553,55.9241947 160.598426,55.8289912 160.678927,55.7489735 C160.759429,55.6689558 160.855208,55.604708 160.964501,55.5568142 C161.073208,55.5095044 161.188377,55.4867257 161.310598,55.4867257 C161.436933,55.4867257 161.555628,55.5095044 161.666685,55.5568142 C161.777154,55.604708 161.875283,55.6689558 161.957547,55.7489735 C162.039811,55.8289912 162.104447,55.9241947 162.154394,56.034 C162.20434,56.1449735 162.229019,56.2623717 162.229019,56.3879469 Z" id="Fill-37" fill="#00703C"></path>
                <path d="M163.3531,63.7688496 L163.3531,57.9141239 L164.219811,57.9141239 C164.40373,57.9141239 164.524189,57.9999823 164.581186,58.171115 L164.679315,58.633115 C164.797423,58.5116283 164.923757,58.4012389 165.055968,58.302531 C165.188178,58.2032389 165.327439,58.1179646 165.474927,58.0455398 C165.622415,57.973115 165.779305,57.9182124 165.947358,57.8802478 C166.116,57.8416991 166.299919,57.8230088 166.498528,57.8230088 C166.819946,57.8230088 167.10552,57.8761593 167.354075,57.9847965 C167.602631,58.0928496 167.811229,58.245292 167.978108,58.4409558 C168.144399,58.6372035 168.270733,58.8708319 168.356523,59.1430088 C168.4429,59.4151858 168.48462,59.7153982 168.48462,60.0424779 L168.48462,63.7688496 L167.067326,63.7688496 L167.067326,60.0424779 C167.067326,59.6850265 166.985062,59.4075929 166.819946,59.2113451 C166.655418,59.0156814 166.4051,58.9187257 166.068404,58.9187257 C165.823375,58.9187257 165.593623,58.9736283 165.379148,59.0840177 C165.165261,59.1944071 164.961951,59.3445133 164.770981,59.5349204 L164.770981,63.7688496 L163.3531,63.7688496" id="Fill-38" fill="#00703C"></path>
                <path d="M176.719261,63.9662655 C176.531817,63.9662655 176.413121,63.8804071 176.363175,63.7092743 L176.242717,63.1444779 C176.119908,63.2811504 175.991811,63.4049735 175.857838,63.5153628 C175.723865,63.6257522 175.580491,63.7209558 175.425364,63.8003894 C175.270825,63.8804071 175.103946,63.9411504 174.926491,63.9849558 C174.748447,64.0287611 174.555127,64.0515398 174.348291,64.0515398 C174.026873,64.0515398 173.731898,63.9849558 173.464539,63.8517876 C173.196593,63.7186195 172.966841,63.524708 172.77352,63.2718053 C172.580199,63.0189027 172.430949,62.7070088 172.325768,62.3343717 C172.220588,61.9611504 172.167116,61.5353628 172.167116,61.0558407 C172.167116,60.6224602 172.226464,60.2194513 172.344571,59.8462301 C172.463854,59.4735929 172.633671,59.1500177 172.855784,58.8760885 C173.077898,58.6027434 173.343493,58.3878053 173.653747,58.2336106 C173.963412,58.0794159 174.31186,58.0034867 174.698501,58.0034867 C175.027558,58.0034867 175.309019,58.054885 175.542296,58.1594336 C175.775574,58.2639823 175.984173,58.4047434 176.168092,58.5793805 L176.168092,55.4867257 L177.585973,55.4867257 L177.585973,63.9662655 L176.719261,63.9662655 Z M174.830712,62.9330442 C175.1251,62.9330442 175.376005,62.8723009 175.582253,62.7508142 C175.789089,62.6287434 175.984173,62.4558584 176.168092,62.2315752 L176.168092,59.6067611 C176.007089,59.4128496 175.833159,59.2755929 175.643951,59.1955752 C175.454156,59.1161416 175.249671,59.0758407 175.031671,59.0758407 C174.817197,59.0758407 174.623876,59.1161416 174.451709,59.1955752 C174.279542,59.2755929 174.132054,59.3953274 174.009833,59.557115 C173.887024,59.7189027 173.793596,59.9244956 173.728372,60.1733097 C173.663148,60.422708 173.63083,60.7176637 173.63083,61.0558407 C173.63083,61.3981062 173.659623,61.6872212 173.714857,61.9249381 C173.770679,62.1626549 173.84883,62.3571504 173.952248,62.5072566 C174.055666,62.6573628 174.182,62.766 174.331251,62.8325841 C174.480501,62.8991681 174.646792,62.9330442 174.830712,62.9330442 Z" id="Fill-39" fill="#00703C"></path>
                <path d="M179.218329,63.7857876 L179.218329,57.9310619 L180.050372,57.9310619 C180.196097,57.9310619 180.297164,57.956177 180.354749,58.0069912 C180.412334,58.0589735 180.450528,58.1518407 180.469919,58.2850088 L180.549833,58.9467611 C180.737278,58.5969027 180.957628,58.3212212 181.210296,58.121469 C181.462965,57.9217168 181.761466,57.8230088 182.105801,57.8230088 C182.377272,57.8230088 182.595272,57.882 182.759801,57.9999823 L182.668135,59.0553982 C182.649332,59.1237345 182.622302,59.1716283 182.585871,59.1996637 C182.549439,59.2282832 182.500081,59.243469 182.438383,59.243469 C182.381385,59.243469 182.296771,59.2341239 182.183951,59.2148496 C182.071132,59.1961593 181.960075,59.1868142 181.853132,59.1868142 C181.696243,59.1868142 181.556394,59.2095929 181.434173,59.2551504 C181.311364,59.300708 181.202658,59.3655398 181.105116,59.4508142 C181.007574,59.5366726 180.921197,59.6412212 180.846571,59.762708 C180.771946,59.8847788 180.701434,60.0237876 180.63621,60.1797345 L180.63621,63.7857876 L179.218329,63.7857876" id="Fill-40" fill="#00703C"></path>
                <path d="M185.551493,65.2868496 C185.509186,65.3855575 185.455714,65.4597345 185.388728,65.5111327 C185.321741,65.562531 185.218323,65.5888142 185.080825,65.5888142 L184.024318,65.5888142 L185.126658,63.2437699 L182.743935,57.8230088 L183.98965,57.8230088 C184.100706,57.8230088 184.188846,57.8498761 184.25172,57.9030265 C184.315181,57.956177 184.361013,58.0175044 184.391569,58.0858407 L185.643159,61.1212566 C185.719547,61.330354 185.783008,61.5376991 185.832367,61.743292 C185.862922,61.6364071 185.89759,61.5301062 185.934022,61.4255575 C185.970453,61.3210088 186.008647,61.2182124 186.050367,61.1154159 L187.233208,58.0858407 C187.263763,58.0099115 187.315472,57.9468319 187.386571,57.8971858 C187.457084,57.8481239 187.535822,57.8230088 187.623375,57.8230088 L188.760383,57.8230088 L185.551493,65.2868496" id="Fill-41" fill="#00703C"></path>
                <path d="M195.828636,63.7857876 C195.694663,63.7857876 195.591245,63.7647611 195.518383,63.7244602 C195.446108,63.6847434 195.388523,63.6047257 195.346216,63.4832389 L195.219881,63.0667965 C195.070631,63.1999646 194.925493,63.3156106 194.783881,63.4166549 C194.64227,63.517115 194.494782,63.6029735 194.342005,63.6713097 C194.188642,63.739646 194.025876,63.7910442 193.851946,63.8255044 C193.678016,63.8599646 193.484695,63.8769027 193.273747,63.8769027 C193.025191,63.8769027 192.795439,63.8424425 192.585078,63.7758584 C192.374717,63.7092743 192.193148,63.6105664 192.039784,63.4773982 C191.887008,63.3442301 191.768313,63.1789381 191.683698,62.9809381 C191.599671,62.7835221 191.557951,62.5533982 191.557951,62.2905664 C191.557951,62.0697876 191.617299,61.8513451 191.733644,61.6364071 C191.850577,61.421469 192.043898,61.2275575 192.315369,61.0540885 C192.586841,60.8812035 192.948803,60.7386903 193.400668,60.6242124 C193.851946,60.5103186 194.41428,60.4454867 195.088259,60.4303009 L195.088259,60.0880354 C195.088259,59.6961239 195.003644,59.4052566 194.83559,59.2171858 C194.666949,59.028531 194.42427,58.9356637 194.106377,58.9356637 C193.876625,58.9356637 193.687418,58.9619469 193.536404,59.0150973 C193.385391,59.0688319 193.251418,59.127823 193.136248,59.1944071 C193.021666,59.2609912 192.918248,59.3217345 192.824232,59.374885 C192.730803,59.4280354 192.625623,59.4549027 192.510453,59.4549027 C192.411148,59.4549027 192.327121,59.4280354 192.257784,59.3766372 C192.189035,59.3252389 192.133801,59.2662478 192.091493,59.1979115 L191.838825,58.7470088 C192.516329,58.1308142 193.331332,57.8230088 194.28442,57.8230088 C194.628755,57.8230088 194.937245,57.8779115 195.208717,57.9900531 C195.480189,58.1021947 195.709941,58.2581416 195.897385,58.4578938 C196.08483,58.657646 196.228792,58.8976991 196.326334,59.1751327 C196.423876,59.4525664 196.471472,59.7568673 196.471472,60.0880354 L196.471472,63.7857876 L195.828636,63.7857876 Z M193.710334,62.9067611 C194.001197,62.9067611 194.253865,62.8536106 194.465989,62.7490619 C194.678701,62.6445133 194.884949,62.4868142 195.088259,62.2736283 L195.088259,61.2865487 C194.674588,61.3052389 194.330253,61.3396991 194.052906,61.3910973 C193.775558,61.4424956 193.551682,61.5090796 193.38304,61.5885133 C193.214987,61.668531 193.094528,61.7619823 193.021666,61.8682832 C192.948803,61.9745841 192.912372,62.0908142 192.912372,62.2163894 C192.912372,62.4640354 192.986997,62.6404248 193.134485,62.7473097 C193.281973,62.8536106 193.472943,62.9067611 193.710334,62.9067611 Z" id="Fill-42" fill="#00703C"></path>
                <path d="M198.021563,63.7857876 L198.021563,57.9310619 L198.853606,57.9310619 C198.999332,57.9310619 199.100399,57.956177 199.157984,58.0069912 C199.215569,58.0589735 199.253763,58.1518407 199.272566,58.2850088 L199.353067,58.9467611 C199.540512,58.5969027 199.760863,58.3212212 200.013531,58.121469 C200.265612,57.9217168 200.564113,57.8230088 200.909035,57.8230088 C201.180507,57.8230088 201.398507,57.882 201.563035,57.9999823 L201.471369,59.0553982 C201.452566,59.1237345 201.425536,59.1716283 201.389105,59.1996637 C201.352674,59.2282832 201.303315,59.243469 201.241617,59.243469 C201.184032,59.243469 201.100005,59.2341239 200.987186,59.2148496 C200.874367,59.1961593 200.76331,59.1868142 200.656367,59.1868142 C200.499477,59.1868142 200.359628,59.2095929 200.237407,59.2551504 C200.114598,59.300708 200.005892,59.3655398 199.90835,59.4508142 C199.810221,59.5366726 199.724431,59.6412212 199.649806,59.762708 C199.575181,59.8847788 199.504081,60.0237876 199.439445,60.1797345 L199.439445,63.7857876 L198.021563,63.7857876" id="Fill-43" fill="#00703C"></path>
                <path d="M204.377057,57.8230088 C204.74842,57.8230088 205.090992,57.882 205.404771,57.9999823 C205.71855,58.1179646 205.988259,58.2890973 206.214485,58.5151327 C206.440124,58.7417522 206.618167,59.0191858 206.746264,59.3486018 C206.874361,59.6774336 206.937822,60.0541593 206.937822,60.4764425 C206.937822,60.6896283 206.914318,60.8321416 206.868485,60.9063186 C206.822652,60.9804956 206.7351,61.0184602 206.604652,61.0184602 L202.959763,61.0184602 C202.982679,61.3186726 203.036151,61.5774159 203.120178,61.7964425 C203.204205,62.014885 203.315261,62.1953628 203.453348,62.3384602 C203.590846,62.4809735 203.755375,62.5872743 203.94517,62.6579469 C204.134377,62.7280354 204.342976,62.7642478 204.572728,62.7642478 C204.80248,62.7642478 205.001089,62.7379646 205.16738,62.6848142 C205.334259,62.6310796 205.479396,62.5720885 205.603968,62.5078407 C205.728539,62.4430088 205.837245,62.3840177 205.931261,62.3308673 C206.02469,62.2777168 206.114593,62.2508496 206.202733,62.2508496 C206.321429,62.2508496 206.409569,62.2946549 206.466566,62.3822655 L206.874361,62.8956637 C206.717472,63.0784779 206.541191,63.2303363 206.346695,63.3541593 C206.151024,63.4773982 205.948302,63.5766903 205.736178,63.6508673 C205.523466,63.7250442 205.307229,63.7781947 205.087466,63.8085664 C204.867116,63.8389381 204.653229,63.8541239 204.446394,63.8541239 C204.036836,63.8541239 203.65607,63.7857876 203.304097,63.6508673 C202.951536,63.5159469 202.645396,63.3161947 202.385089,63.0516106 C202.125369,62.7870265 201.920296,62.4599469 201.771046,62.0703717 C201.621795,61.6802124 201.54717,61.2293097 201.54717,60.7159115 C201.54717,60.3164071 201.612394,59.9402655 201.742253,59.5880708 C201.872701,59.2364602 202.060146,58.929823 202.302825,58.6693274 C202.546092,58.4088319 202.84283,58.2032389 203.19304,58.0513805 C203.543251,57.8989381 203.936943,57.8230088 204.377057,57.8230088 Z M204.405849,58.8328673 C203.992765,58.8328673 203.669585,58.9490973 203.43572,59.1809735 C203.202442,59.4128496 203.053191,59.7422655 202.987968,60.1680531 L205.663315,60.1680531 C205.663315,59.985823 205.638636,59.812354 205.586927,59.6505664 C205.535218,59.4893628 205.45648,59.3486018 205.353062,59.226531 C205.249644,59.1050442 205.119784,59.0080885 204.961132,58.9374159 C204.80248,58.8673274 204.61621,58.8328673 204.405849,58.8328673 Z" id="Fill-44" fill="#00703C"></path>
                <path d="M211.693865,63.7857876 C211.559892,63.7857876 211.456474,63.7647611 211.384199,63.7244602 C211.311337,63.6847434 211.253752,63.6047257 211.212032,63.4832389 L211.085698,63.0667965 C210.936447,63.1999646 210.790722,63.3156106 210.649111,63.4166549 C210.507499,63.517115 210.360598,63.6029735 210.207235,63.6713097 C210.054458,63.739646 209.891693,63.7910442 209.717175,63.8255044 C209.543245,63.8599646 209.349925,63.8769027 209.139563,63.8769027 C208.891008,63.8769027 208.661256,63.8424425 208.450895,63.7758584 C208.239946,63.7092743 208.058377,63.6105664 207.905601,63.4773982 C207.752237,63.3442301 207.633542,63.1789381 207.549515,62.9809381 C207.4649,62.7835221 207.423181,62.5533982 207.423181,62.2905664 C207.423181,62.0697876 207.482528,61.8513451 207.599461,61.6364071 C207.715806,61.421469 207.909127,61.2275575 208.180598,61.0540885 C208.452658,60.8812035 208.814032,60.7386903 209.265898,60.6242124 C209.717175,60.5103186 210.280097,60.4454867 210.953488,60.4303009 L210.953488,60.0880354 C210.953488,59.6961239 210.869461,59.4052566 210.700819,59.2171858 C210.532765,59.028531 210.289499,58.9356637 209.972194,58.9356637 C209.742442,58.9356637 209.552647,58.9619469 209.401633,59.0150973 C209.25062,59.0688319 209.116647,59.127823 209.001477,59.1944071 C208.886895,59.2609912 208.783477,59.3217345 208.690049,59.374885 C208.596032,59.4280354 208.490852,59.4549027 208.37627,59.4549027 C208.276377,59.4549027 208.19235,59.4280354 208.123601,59.3766372 C208.054852,59.3252389 207.99903,59.2662478 207.956722,59.1979115 L207.704054,58.7470088 C208.381558,58.1308142 209.197148,57.8230088 210.14965,57.8230088 C210.493984,57.8230088 210.802474,57.8779115 211.073946,57.9900531 C211.346005,58.1021947 211.57517,58.2581416 211.763202,58.4578938 C211.950647,58.657646 212.094022,58.8976991 212.191563,59.1751327 C212.289105,59.4525664 212.336701,59.7568673 212.336701,60.0880354 L212.336701,63.7857876 L211.693865,63.7857876 Z M209.575563,62.9067611 C209.866426,62.9067611 210.119094,62.8536106 210.331806,62.7490619 C210.54393,62.6445133 210.750765,62.4868142 210.953488,62.2736283 L210.953488,61.2865487 C210.540404,61.3052389 210.19607,61.3396991 209.918135,61.3910973 C209.640787,61.4424956 209.416911,61.5090796 209.24827,61.5885133 C209.080216,61.668531 208.959757,61.7619823 208.886895,61.8682832 C208.814032,61.9745841 208.777601,62.0908142 208.777601,62.2163894 C208.777601,62.4640354 208.852226,62.6404248 208.999714,62.7473097 C209.147202,62.8536106 209.33876,62.9067611 209.575563,62.9067611 Z" id="Fill-45" fill="#00703C"></path>
                <path d="M217.311332,59.0553982 C217.273137,59.1161416 217.233181,59.1581947 217.190873,59.1827257 C217.149154,59.2078407 217.095682,59.2206903 217.030458,59.2206903 C216.961709,59.2206903 216.888846,59.202 216.810108,59.1640354 C216.731957,59.1260708 216.640291,59.0822655 216.536873,59.0343717 C216.433456,58.9870619 216.316523,58.9450088 216.1849,58.9070442 C216.05269,58.8690796 215.895801,58.8498053 215.715995,58.8498053 C215.436296,58.8498053 215.218296,58.9087965 215.059644,59.0267788 C214.900404,59.1447611 214.820491,59.2989558 214.820491,59.4893628 C214.820491,59.6149381 214.86221,59.7194867 214.944474,59.8047611 C215.026739,59.8906195 215.136032,59.9665487 215.271768,60.0313805 C215.408092,60.0962124 215.560868,60.1528673 215.733035,60.2042655 C215.905202,60.2556637 216.081482,60.3129027 216.259526,60.373646 C216.436981,60.4343894 216.611499,60.5027257 216.783666,60.5809912 C216.955833,60.6586726 217.11096,60.7579646 217.246695,60.8776991 C217.382431,60.9974336 217.491725,61.1416991 217.573989,61.3093274 C217.656253,61.4769558 217.69621,61.6784602 217.69621,61.9144248 C217.69621,62.1953628 217.646264,62.4546903 217.545197,62.6924071 C217.443542,62.9301239 217.292528,63.1351327 217.093332,63.3086018 C216.894722,63.4814867 216.649693,63.6164071 216.357067,63.7133628 C216.063854,63.8103186 215.725396,63.8599646 215.342868,63.8599646 C215.139558,63.8599646 214.942712,63.8412743 214.749391,63.8044779 C214.55607,63.7688496 214.370388,63.7192035 214.192933,63.6543717 C214.014889,63.5901239 213.849774,63.5136106 213.69876,63.426 C213.547747,63.3389735 213.413774,63.2437699 213.299191,63.1409735 L213.626485,62.6047965 C213.668205,62.5399646 213.718151,62.4903186 213.775736,62.4564425 C213.832733,62.4219823 213.905596,62.4050442 213.993736,62.4050442 C214.081876,62.4050442 214.165903,62.4295752 214.244054,62.4792212 C214.322792,62.5288673 214.412695,62.5820177 214.516113,62.6386726 C214.619531,62.6959115 214.741752,62.7490619 214.881601,62.798708 C215.02145,62.848354 215.197143,62.872885 215.411617,62.872885 C215.579671,62.872885 215.725396,62.8518584 215.845854,62.8121416 C215.966313,62.7718407 216.065617,62.7204425 216.144356,62.6561947 C216.222507,62.5913628 216.280092,62.5154336 216.316523,62.4295752 C216.352954,62.3437168 216.369995,62.2566903 216.369995,62.1655752 C216.369995,62.0283186 216.330038,61.916177 216.247774,61.8285664 C216.165509,61.7409558 216.056216,61.6650265 215.92048,61.6001947 C215.784744,61.5359469 215.629617,61.4769558 215.455687,61.4255575 C215.28117,61.3741593 215.103714,61.3186726 214.921558,61.2579292 C214.739989,61.1971858 214.561946,61.1247611 214.388016,61.0429912 C214.213499,60.9612212 214.058372,60.8584248 213.922636,60.7328496 C213.7869,60.6072743 213.677606,60.4536637 213.595342,60.2708496 C213.513078,60.0886195 213.471358,59.8678407 213.471358,59.6090973 C213.471358,59.3690442 213.518954,59.1412566 213.614733,58.9245664 C213.710512,58.707292 213.852124,58.517469 214.037806,58.3556814 C214.223488,58.1938938 214.455003,58.0642301 214.73235,57.9678584 C215.009698,57.8709027 215.329353,57.8230088 215.693078,57.8230088 C216.098523,57.8230088 216.467536,57.8895929 216.800706,58.0227611 C217.133876,58.1559292 217.411224,58.3311504 217.633337,58.5478407 L217.311332,59.0553982" id="Fill-46" fill="#00703C"></path>
                <path d="M50.0594987,29.9009204 L50.0583235,29.9009204 C50.0271806,36.6364248 44.4931536,42.8112212 37.7204636,43.6657168 L37.7204636,43.6663009 L37.6628787,43.6733097 L25.2668464,45.1807965 L25.2668464,38.2402832 L33.9627547,28.5400354 L33.9621671,28.5394513 C36.3049326,25.9017876 37.5541725,22.4843894 37.7045984,19.0249381 C37.7480809,19.0202655 37.7909757,19.0155929 37.8344582,19.0109204 L37.8344582,19.0091681 L50.0594987,17.5221239 L50.0594987,29.9009204" id="Fill-47" fill="#F1AD2D"></path>
                <path d="M0,29.9009204 L0.00117520216,29.9009204 C0.0317304582,36.6364248 5.56634501,42.8112212 12.339035,43.6657168 L12.339035,43.6663009 L12.3960323,43.6733097 L24.7926523,45.1807965 L24.7926523,32.8592389 C24.7926523,26.0816814 19.2145553,19.8589912 12.3960323,19.0296106 C12.339035,19.0226018 12.2820377,19.0173451 12.2250404,19.0109204 L12.2250404,19.0091681 L0,17.5221239 L0,29.9009204" id="Fill-48" fill="#E5742B"></path>
                <path d="M33.5038383,9.2960708 L33.5032507,9.29723894 C37.9549164,14.3757345 37.8996819,22.6455929 33.3810296,27.7322655 L33.3816173,27.7328496 L25.7392776,36.2579469 L25.7392776,33.0841062 C25.7392776,26.1295752 20.3480377,19.7106372 13.5148248,18.2311858 C13.6023774,14.9749912 14.7564259,11.7409912 16.9728571,9.2680354 C17.0110512,9.22539823 17.0504205,9.1839292 17.0892022,9.14187611 L17.088027,9.14012389 L25.2809488,0 L33.5038383,9.2960708" id="Fill-49" fill="#00703C"></path>
            </g>
        </g>
    </g>
</svg>