<?xml version="1.0" standalone="no"?>
<!DOCTYPE svg PUBLIC "-//W3C//DTD SVG 20010904//EN"
 "http://www.w3.org/TR/2001/REC-SVG-20010904/DTD/svg10.dtd">
<svg version="1.0" xmlns="http://www.w3.org/2000/svg"
 width="840.000000pt" height="1360.000000pt" viewBox="0 0 840.000000 1360.000000"
 preserveAspectRatio="xMidYMid meet">

<g transform="translate(0.000000,1360.000000) scale(0.100000,-0.100000)"
fill="#000000" stroke="none">
<path d="M3941 13190 c-976 -58 -1880 -459 -2556 -1135 -648 -647 -1027 -1438
-1121 -2343 -20 -189 -23 -587 -5 -752 48 -464 172 -883 387 -1311 64 -129
452 -830 547 -989 114 -191 357 -572 777 -1215 591 -906 890 -1422 1252 -2160
424 -863 772 -1866 959 -2759 13 -60 24 -105 26 -100 1 5 18 86 38 179 251
1182 698 2321 1388 3536 272 479 522 879 1162 1854 198 301 379 594 516 833
137 239 518 996 587 1167 316 788 330 1749 36 2595 -183 530 -524 1064 -941
1477 -575 569 -1325 942 -2170 1078 -256 42 -623 60 -882 45z m459 -2435 c527
-80 974 -467 1124 -975 45 -156 51 -197 51 -395 0 -203 -10 -274 -61 -432
-110 -338 -363 -635 -682 -801 -105 -55 -191 -87 -322 -120 -97 -25 -121 -27
-315 -27 -194 0 -218 2 -315 27 -134 34 -223 67 -329 124 -401 213 -672 602
-732 1051 -14 109 -7 352 14 448 84 377 294 685 607 889 286 187 628 262 960
211z"/>
</g>
</svg>
